solid OpenSCAD_Model
  facet normal -1 0 0
    outer loop
      vertex -2 2.01 0
      vertex -2 2.01 19
      vertex -2 2.99 0
    endloop
  endfacet
  facet normal -1 0 0
    outer loop
      vertex -2 2.99 0
      vertex -2 2.01 19
      vertex -2 2.99 19
    endloop
  endfacet
  facet normal 2.10734e-08 -1 0
    outer loop
      vertex -1.99 2.01 0
      vertex -1.99 2.01 19
      vertex -2 2.01 19
    endloop
  endfacet
  facet normal 2.10734e-08 -1 0
    outer loop
      vertex -2 2.01 0
      vertex -1.99 2.01 0
      vertex -2 2.01 19
    endloop
  endfacet
  facet normal 0 0 -1
    outer loop
      vertex -2 2.01 0
      vertex -2 2.99 0
      vertex -1.99 2.01 0
    endloop
  endfacet
  facet normal 0 0 -1
    outer loop
      vertex -1.99 2.01 0
      vertex -2 2.99 0
      vertex -1.99 2.99 0
    endloop
  endfacet
  facet normal 0 0 -1
    outer loop
      vertex -1.99 2.01 0
      vertex -1.99 2.99 0
      vertex -1.68552 4.52073 0
    endloop
  endfacet
  facet normal 0 0 -1
    outer loop
      vertex -1.99 2.01 0
      vertex -1.68552 4.52073 0
      vertex -0.818427 5.81843 0
    endloop
  endfacet
  facet normal 0 0 -1
    outer loop
      vertex -1.99 2.01 0
      vertex -0.818427 5.81843 0
      vertex 0.479266 6.68552 0
    endloop
  endfacet
  facet normal 0 0 -1
    outer loop
      vertex 0 5 0
      vertex 0.479266 6.68552 0
      vertex 2.01 6.99 0
    endloop
  endfacet
  facet normal 0 0 -1
    outer loop
      vertex 2.01 6.99 0
      vertex 2.01 7 0
      vertex 12.99 7 0
    endloop
  endfacet
  facet normal 0 0 -1
    outer loop
      vertex 9.125 5.5 0
      vertex 12.99 6.99 0
      vertex 14.5207 6.68552 0
    endloop
  endfacet
  facet normal 0 0 -1
    outer loop
      vertex 14 5.5 0
      vertex 14.5207 6.68552 0
      vertex 15.8184 5.81843 0
    endloop
  endfacet
  facet normal 0 0 -1
    outer loop
      vertex 15 5 0
      vertex 15.8184 5.81843 0
      vertex 16.6855 4.52073 0
    endloop
  endfacet
  facet normal 0 0 -1
    outer loop
      vertex 0.479266 -1.68552 0
      vertex 0 0 0
      vertex 2.01 -1.99 0
    endloop
  endfacet
  facet normal 0 0 -1
    outer loop
      vertex 1 0 0
      vertex 1 -0.5 0
      vertex 0 0 0
    endloop
  endfacet
  facet normal 0 0 -1
    outer loop
      vertex 9.125 5.5 0
      vertex 14.5207 6.68552 0
      vertex 10.75 5.5 0
    endloop
  endfacet
  facet normal 0 0 -1
    outer loop
      vertex 5.875 5.5 0
      vertex 12.99 6.99 0
      vertex 9.125 5.5 0
    endloop
  endfacet
  facet normal 0 0 -1
    outer loop
      vertex 9.125 5.5 0
      vertex 10.75 5.5 0
      vertex 9.125 5 0
    endloop
  endfacet
  facet normal 0 0 -1
    outer loop
      vertex 12.99 -2 0
      vertex 2.01 -2 0
      vertex 2.01 -1.99 0
    endloop
  endfacet
  facet normal 0 0 -1
    outer loop
      vertex -1.99 2.01 0
      vertex 0.479266 6.68552 0
      vertex 0 5 0
    endloop
  endfacet
  facet normal 0 0 -1
    outer loop
      vertex 0 0 0
      vertex -1.99 2.01 0
      vertex 0 5 0
    endloop
  endfacet
  facet normal 0 0 -1
    outer loop
      vertex 0 5 0
      vertex 2.01 6.99 0
      vertex 1 5.5 0
    endloop
  endfacet
  facet normal 0 0 -1
    outer loop
      vertex 16.99 2.99 0
      vertex 17 2.99 0
      vertex 17 2.01 0
    endloop
  endfacet
  facet normal 0 0 -1
    outer loop
      vertex 15 5 0
      vertex 16.99 2.01 0
      vertex 16.6855 0.479266 0
    endloop
  endfacet
  facet normal 0 0 -1
    outer loop
      vertex 9.125 -0.5 0
      vertex 12.99 -2 0
      vertex 5.875 -0.5 0
    endloop
  endfacet
  facet normal 0 0 -1
    outer loop
      vertex 5.875 -0.5 0
      vertex 4.25 0 0
      vertex 5.875 0 0
    endloop
  endfacet
  facet normal 0 0 -1
    outer loop
      vertex 5.875 -0.5 0
      vertex 4.25 -0.5 0
      vertex 4.25 0 0
    endloop
  endfacet
  facet normal 0 0 -1
    outer loop
      vertex 15 5 0
      vertex 16.99 2.99 0
      vertex 17 2.01 0
    endloop
  endfacet
  facet normal 0 0 -1
    outer loop
      vertex 12.99 -2 0
      vertex 4.25 -0.5 0
      vertex 5.875 -0.5 0
    endloop
  endfacet
  facet normal 0 0 -1
    outer loop
      vertex 9.125 -0.5 0
      vertex 14.5207 -1.68552 0
      vertex 12.99 -1.99 0
    endloop
  endfacet
  facet normal 0 0 -1
    outer loop
      vertex 10.75 -0.5 0
      vertex 9.125 0 0
      vertex 10.75 0 0
    endloop
  endfacet
  facet normal 0 0 -1
    outer loop
      vertex 14 5.5 0
      vertex 15.8184 5.81843 0
      vertex 14 5 0
    endloop
  endfacet
  facet normal 0 0 -1
    outer loop
      vertex 10.75 -0.5 0
      vertex 14.5207 -1.68552 0
      vertex 9.125 0 0
    endloop
  endfacet
  facet normal 0 0 -1
    outer loop
      vertex 5.875 5.5 0
      vertex 12.99 7 0
      vertex 12.99 6.99 0
    endloop
  endfacet
  facet normal 0 0 -1
    outer loop
      vertex 15 5 0
      vertex 16.6855 4.52073 0
      vertex 16.99 2.99 0
    endloop
  endfacet
  facet normal 0 0 -1
    outer loop
      vertex 15.8184 -0.818427 0
      vertex 14.5207 -1.68552 0
      vertex 10.75 -0.5 0
    endloop
  endfacet
  facet normal 0 0 -1
    outer loop
      vertex 14 -0.5 0
      vertex 15.8184 -0.818427 0
      vertex 10.75 -0.5 0
    endloop
  endfacet
  facet normal 0 0 -1
    outer loop
      vertex 16.6855 0.479266 0
      vertex 15.8184 -0.818427 0
      vertex 14 -0.5 0
    endloop
  endfacet
  facet normal 0 0 -1
    outer loop
      vertex 15 0 0
      vertex 14 -0.5 0
      vertex 14 0 0
    endloop
  endfacet
  facet normal 0 0 -1
    outer loop
      vertex 16.6855 0.479266 0
      vertex 14 -0.5 0
      vertex 15 0 0
    endloop
  endfacet
  facet normal 0 0 -1
    outer loop
      vertex 14 5 0
      vertex 15.8184 5.81843 0
      vertex 15 5 0
    endloop
  endfacet
  facet normal 0 0 -1
    outer loop
      vertex 10.75 5.5 0
      vertex 14.5207 6.68552 0
      vertex 14 5.5 0
    endloop
  endfacet
  facet normal 0 0 -1
    outer loop
      vertex 9.125 5 0
      vertex 10.75 5.5 0
      vertex 10.75 5 0
    endloop
  endfacet
  facet normal 0 0 -1
    outer loop
      vertex 2.01 6.99 0
      vertex 12.99 7 0
      vertex 5.875 5.5 0
    endloop
  endfacet
  facet normal 0 0 -1
    outer loop
      vertex 1 5.5 0
      vertex 2.01 6.99 0
      vertex 4.25 5.5 0
    endloop
  endfacet
  facet normal 0 0 -1
    outer loop
      vertex 4.25 5.5 0
      vertex 5.875 5.5 0
      vertex 4.25 5 0
    endloop
  endfacet
  facet normal 0 0 -1
    outer loop
      vertex 2.01 6.99 0
      vertex 5.875 5.5 0
      vertex 4.25 5.5 0
    endloop
  endfacet
  facet normal 0 0 -1
    outer loop
      vertex 4.25 5 0
      vertex 5.875 5.5 0
      vertex 5.875 5 0
    endloop
  endfacet
  facet normal 0 0 -1
    outer loop
      vertex 15 5 0
      vertex 16.6855 0.479266 0
      vertex 15 0 0
    endloop
  endfacet
  facet normal 0 0 -1
    outer loop
      vertex 0 5 0
      vertex 1 5.5 0
      vertex 1 5 0
    endloop
  endfacet
  facet normal 0 0 -1
    outer loop
      vertex -1.99 2.01 0
      vertex 0 0 0
      vertex 0.479266 -1.68552 0
    endloop
  endfacet
  facet normal 0 0 -1
    outer loop
      vertex -1.99 2.01 0
      vertex 0.479266 -1.68552 0
      vertex -0.818427 -0.818427 0
    endloop
  endfacet
  facet normal 0 0 -1
    outer loop
      vertex -1.99 2.01 0
      vertex -0.818427 -0.818427 0
      vertex -1.68552 0.479266 0
    endloop
  endfacet
  facet normal 0 0 -1
    outer loop
      vertex 9.125 0 0
      vertex 14.5207 -1.68552 0
      vertex 9.125 -0.5 0
    endloop
  endfacet
  facet normal 0 0 -1
    outer loop
      vertex 15 5 0
      vertex 17 2.01 0
      vertex 16.99 2.01 0
    endloop
  endfacet
  facet normal 0 0 -1
    outer loop
      vertex 9.125 -0.5 0
      vertex 12.99 -1.99 0
      vertex 12.99 -2 0
    endloop
  endfacet
  facet normal 0 0 -1
    outer loop
      vertex 4.25 -0.5 0
      vertex 12.99 -2 0
      vertex 2.01 -1.99 0
    endloop
  endfacet
  facet normal 0 0 -1
    outer loop
      vertex 1 -0.5 0
      vertex 2.01 -1.99 0
      vertex 0 0 0
    endloop
  endfacet
  facet normal 0 0 -1
    outer loop
      vertex 4.25 -0.5 0
      vertex 2.01 -1.99 0
      vertex 1 -0.5 0
    endloop
  endfacet
  facet normal -6.12323e-17 1 0
    outer loop
      vertex -1.99 2.99 19
      vertex -1.99 2.99 0
      vertex -2 2.99 19
    endloop
  endfacet
  facet normal -6.12323e-17 1 0
    outer loop
      vertex -2 2.99 19
      vertex -1.99 2.99 0
      vertex -2 2.99 0
    endloop
  endfacet
  facet normal 0 0 1
    outer loop
      vertex 2.01 -1.99 19
      vertex 12.99 -2 19
      vertex -2 2.99 19
    endloop
  endfacet
  facet normal 0 0 1
    outer loop
      vertex -2 2.99 19
      vertex -2 2.01 19
      vertex -1.99 2.01 19
    endloop
  endfacet
  facet normal 0 0 1
    outer loop
      vertex -1.68552 0.479266 19
      vertex -2 2.99 19
      vertex -1.99 2.01 19
    endloop
  endfacet
  facet normal 0 0 1
    outer loop
      vertex -1.68552 0.479266 19
      vertex -0.818427 -0.818427 19
      vertex -2 2.99 19
    endloop
  endfacet
  facet normal 0 0 1
    outer loop
      vertex -0.818427 -0.818427 19
      vertex 0.479266 -1.68552 19
      vertex -2 2.99 19
    endloop
  endfacet
  facet normal 0 0 1
    outer loop
      vertex 0.479266 -1.68552 19
      vertex 2.01 -1.99 19
      vertex -2 2.99 19
    endloop
  endfacet
  facet normal 0 0 1
    outer loop
      vertex 12.99 -1.99 19
      vertex 14.5207 -1.68552 19
      vertex -2 2.99 19
    endloop
  endfacet
  facet normal 0 0 1
    outer loop
      vertex 2.01 -2 19
      vertex 12.99 -2 19
      vertex 2.01 -1.99 19
    endloop
  endfacet
  facet normal 0 0 1
    outer loop
      vertex 12.99 -2 19
      vertex 12.99 -1.99 19
      vertex -2 2.99 19
    endloop
  endfacet
  facet normal 0 0 1
    outer loop
      vertex 16.99 2.01 19
      vertex 17 2.01 19
      vertex -2 2.99 19
    endloop
  endfacet
  facet normal 0 0 1
    outer loop
      vertex 14.5207 -1.68552 19
      vertex 15.8184 -0.818427 19
      vertex -2 2.99 19
    endloop
  endfacet
  facet normal 0 0 1
    outer loop
      vertex 15.8184 -0.818427 19
      vertex 16.6855 0.479266 19
      vertex -2 2.99 19
    endloop
  endfacet
  facet normal 0 0 1
    outer loop
      vertex 16.6855 0.479266 19
      vertex 16.99 2.01 19
      vertex -2 2.99 19
    endloop
  endfacet
  facet normal 0 0 1
    outer loop
      vertex 17 2.01 19
      vertex 17 2.99 19
      vertex -2 2.99 19
    endloop
  endfacet
  facet normal 0 0 1
    outer loop
      vertex -1.68552 4.52073 19
      vertex 0.479266 6.68552 19
      vertex -0.818427 5.81843 19
    endloop
  endfacet
  facet normal 0 0 1
    outer loop
      vertex 12.99 7 19
      vertex 2.01 7 19
      vertex 2.01 6.99 19
    endloop
  endfacet
  facet normal 0 0 1
    outer loop
      vertex 17 2.99 19
      vertex -1.99 2.99 19
      vertex -2 2.99 19
    endloop
  endfacet
  facet normal 0 0 1
    outer loop
      vertex 17 2.99 19
      vertex 16.99 2.99 19
      vertex -1.99 2.99 19
    endloop
  endfacet
  facet normal 0 0 1
    outer loop
      vertex -1.68552 4.52073 19
      vertex 2.01 6.99 19
      vertex 0.479266 6.68552 19
    endloop
  endfacet
  facet normal 0 0 1
    outer loop
      vertex -1.68552 4.52073 19
      vertex 12.99 7 19
      vertex 2.01 6.99 19
    endloop
  endfacet
  facet normal 0 0 1
    outer loop
      vertex -1.68552 4.52073 19
      vertex 12.99 6.99 19
      vertex 12.99 7 19
    endloop
  endfacet
  facet normal 0 0 1
    outer loop
      vertex -1.68552 4.52073 19
      vertex 14.5207 6.68552 19
      vertex 12.99 6.99 19
    endloop
  endfacet
  facet normal 0 0 1
    outer loop
      vertex -1.68552 4.52073 19
      vertex 15.8184 5.81843 19
      vertex 14.5207 6.68552 19
    endloop
  endfacet
  facet normal 0 0 1
    outer loop
      vertex -1.68552 4.52073 19
      vertex 16.6855 4.52073 19
      vertex 15.8184 5.81843 19
    endloop
  endfacet
  facet normal 0 0 1
    outer loop
      vertex -1.68552 4.52073 19
      vertex 16.99 2.99 19
      vertex 16.6855 4.52073 19
    endloop
  endfacet
  facet normal 0 0 1
    outer loop
      vertex -1.68552 4.52073 19
      vertex -1.99 2.99 19
      vertex 16.99 2.99 19
    endloop
  endfacet
  facet normal -0.980785 -0.19509 0
    outer loop
      vertex -1.99 2.01 0
      vertex -1.68552 0.479266 0
      vertex -1.99 2.01 19
    endloop
  endfacet
  facet normal -0.980785 -0.19509 0
    outer loop
      vertex -1.99 2.01 19
      vertex -1.68552 0.479266 0
      vertex -1.68552 0.479266 19
    endloop
  endfacet
  facet normal -0.83147 -0.55557 0
    outer loop
      vertex -1.68552 0.479266 0
      vertex -0.818427 -0.818427 0
      vertex -1.68552 0.479266 19
    endloop
  endfacet
  facet normal -0.83147 -0.55557 0
    outer loop
      vertex -1.68552 0.479266 19
      vertex -0.818427 -0.818427 0
      vertex -0.818427 -0.818427 19
    endloop
  endfacet
  facet normal -0.55557 -0.83147 0
    outer loop
      vertex -0.818427 -0.818427 19
      vertex -0.818427 -0.818427 0
      vertex 0.479266 -1.68552 0
    endloop
  endfacet
  facet normal -0.55557 -0.83147 0
    outer loop
      vertex 0.479266 -1.68552 19
      vertex -0.818427 -0.818427 19
      vertex 0.479266 -1.68552 0
    endloop
  endfacet
  facet normal -0.19509 -0.980785 0
    outer loop
      vertex 0.479266 -1.68552 19
      vertex 0.479266 -1.68552 0
      vertex 2.01 -1.99 0
    endloop
  endfacet
  facet normal -0.19509 -0.980785 0
    outer loop
      vertex 2.01 -1.99 19
      vertex 0.479266 -1.68552 19
      vertex 2.01 -1.99 0
    endloop
  endfacet
  facet normal -1 -2.10734e-08 0
    outer loop
      vertex 2.01 -2 19
      vertex 2.01 -1.99 19
      vertex 2.01 -2 0
    endloop
  endfacet
  facet normal -1 -2.10734e-08 0
    outer loop
      vertex 2.01 -2 0
      vertex 2.01 -1.99 19
      vertex 2.01 -1.99 0
    endloop
  endfacet
  facet normal 0 -1 0
    outer loop
      vertex 2.01 -2 19
      vertex 2.01 -2 0
      vertex 12.99 -2 0
    endloop
  endfacet
  facet normal 0 -1 0
    outer loop
      vertex 12.99 -2 19
      vertex 2.01 -2 19
      vertex 12.99 -2 0
    endloop
  endfacet
  facet normal 1 -6.12323e-17 0
    outer loop
      vertex 12.99 -1.99 0
      vertex 12.99 -1.99 19
      vertex 12.99 -2 19
    endloop
  endfacet
  facet normal 1 -6.12323e-17 0
    outer loop
      vertex 12.99 -2 0
      vertex 12.99 -1.99 0
      vertex 12.99 -2 19
    endloop
  endfacet
  facet normal 0.19509 -0.980785 0
    outer loop
      vertex 12.99 -1.99 19
      vertex 12.99 -1.99 0
      vertex 14.5207 -1.68552 0
    endloop
  endfacet
  facet normal 0.19509 -0.980785 0
    outer loop
      vertex 14.5207 -1.68552 19
      vertex 12.99 -1.99 19
      vertex 14.5207 -1.68552 0
    endloop
  endfacet
  facet normal 0.55557 -0.83147 0
    outer loop
      vertex 14.5207 -1.68552 19
      vertex 14.5207 -1.68552 0
      vertex 15.8184 -0.818427 0
    endloop
  endfacet
  facet normal 0.55557 -0.83147 0
    outer loop
      vertex 15.8184 -0.818427 19
      vertex 14.5207 -1.68552 19
      vertex 15.8184 -0.818427 0
    endloop
  endfacet
  facet normal 0.83147 -0.55557 0
    outer loop
      vertex 15.8184 -0.818427 19
      vertex 15.8184 -0.818427 0
      vertex 16.6855 0.479266 0
    endloop
  endfacet
  facet normal 0.83147 -0.55557 0
    outer loop
      vertex 16.6855 0.479266 19
      vertex 15.8184 -0.818427 19
      vertex 16.6855 0.479266 0
    endloop
  endfacet
  facet normal 0.980785 -0.19509 0
    outer loop
      vertex 16.6855 0.479266 19
      vertex 16.6855 0.479266 0
      vertex 16.99 2.01 0
    endloop
  endfacet
  facet normal 0.980785 -0.19509 0
    outer loop
      vertex 16.99 2.01 19
      vertex 16.6855 0.479266 19
      vertex 16.99 2.01 0
    endloop
  endfacet
  facet normal -6.12323e-17 -1 0
    outer loop
      vertex 17 2.01 0
      vertex 17 2.01 19
      vertex 16.99 2.01 19
    endloop
  endfacet
  facet normal -6.12323e-17 -1 0
    outer loop
      vertex 16.99 2.01 0
      vertex 17 2.01 0
      vertex 16.99 2.01 19
    endloop
  endfacet
  facet normal 1 0 0
    outer loop
      vertex 17 2.01 19
      vertex 17 2.01 0
      vertex 17 2.99 0
    endloop
  endfacet
  facet normal 1 0 0
    outer loop
      vertex 17 2.99 19
      vertex 17 2.01 19
      vertex 17 2.99 0
    endloop
  endfacet
  facet normal 2.10734e-08 1 0
    outer loop
      vertex 17 2.99 19
      vertex 17 2.99 0
      vertex 16.99 2.99 19
    endloop
  endfacet
  facet normal 2.10734e-08 1 0
    outer loop
      vertex 16.99 2.99 19
      vertex 17 2.99 0
      vertex 16.99 2.99 0
    endloop
  endfacet
  facet normal 0.980785 0.19509 0
    outer loop
      vertex 16.99 2.99 0
      vertex 16.6855 4.52073 0
      vertex 16.6855 4.52073 19
    endloop
  endfacet
  facet normal 0.980785 0.19509 0
    outer loop
      vertex 16.99 2.99 19
      vertex 16.99 2.99 0
      vertex 16.6855 4.52073 19
    endloop
  endfacet
  facet normal 0.83147 0.55557 0
    outer loop
      vertex 16.6855 4.52073 0
      vertex 15.8184 5.81843 0
      vertex 15.8184 5.81843 19
    endloop
  endfacet
  facet normal 0.83147 0.55557 0
    outer loop
      vertex 16.6855 4.52073 19
      vertex 16.6855 4.52073 0
      vertex 15.8184 5.81843 19
    endloop
  endfacet
  facet normal 0.55557 0.83147 0
    outer loop
      vertex 14.5207 6.68552 0
      vertex 14.5207 6.68552 19
      vertex 15.8184 5.81843 0
    endloop
  endfacet
  facet normal 0.55557 0.83147 0
    outer loop
      vertex 15.8184 5.81843 0
      vertex 14.5207 6.68552 19
      vertex 15.8184 5.81843 19
    endloop
  endfacet
  facet normal 0.19509 0.980785 0
    outer loop
      vertex 12.99 6.99 0
      vertex 12.99 6.99 19
      vertex 14.5207 6.68552 0
    endloop
  endfacet
  facet normal 0.19509 0.980785 0
    outer loop
      vertex 14.5207 6.68552 0
      vertex 12.99 6.99 19
      vertex 14.5207 6.68552 19
    endloop
  endfacet
  facet normal 1 -2.10734e-08 0
    outer loop
      vertex 12.99 7 0
      vertex 12.99 7 19
      vertex 12.99 6.99 19
    endloop
  endfacet
  facet normal 1 -2.10734e-08 0
    outer loop
      vertex 12.99 6.99 0
      vertex 12.99 7 0
      vertex 12.99 6.99 19
    endloop
  endfacet
  facet normal 0 1 0
    outer loop
      vertex 2.01 7 0
      vertex 2.01 7 19
      vertex 12.99 7 0
    endloop
  endfacet
  facet normal 0 1 0
    outer loop
      vertex 12.99 7 0
      vertex 2.01 7 19
      vertex 12.99 7 19
    endloop
  endfacet
  facet normal -1 -6.12323e-17 0
    outer loop
      vertex 2.01 6.99 19
      vertex 2.01 7 19
      vertex 2.01 6.99 0
    endloop
  endfacet
  facet normal -1 -6.12323e-17 0
    outer loop
      vertex 2.01 6.99 0
      vertex 2.01 7 19
      vertex 2.01 7 0
    endloop
  endfacet
  facet normal -0.19509 0.980785 0
    outer loop
      vertex 0.479266 6.68552 0
      vertex 0.479266 6.68552 19
      vertex 2.01 6.99 0
    endloop
  endfacet
  facet normal -0.19509 0.980785 0
    outer loop
      vertex 2.01 6.99 0
      vertex 0.479266 6.68552 19
      vertex 2.01 6.99 19
    endloop
  endfacet
  facet normal -0.55557 0.83147 0
    outer loop
      vertex -0.818427 5.81843 0
      vertex -0.818427 5.81843 19
      vertex 0.479266 6.68552 0
    endloop
  endfacet
  facet normal -0.55557 0.83147 0
    outer loop
      vertex 0.479266 6.68552 0
      vertex -0.818427 5.81843 19
      vertex 0.479266 6.68552 19
    endloop
  endfacet
  facet normal -0.83147 0.55557 0
    outer loop
      vertex -1.68552 4.52073 0
      vertex -1.68552 4.52073 19
      vertex -0.818427 5.81843 0
    endloop
  endfacet
  facet normal -0.83147 0.55557 0
    outer loop
      vertex -0.818427 5.81843 0
      vertex -1.68552 4.52073 19
      vertex -0.818427 5.81843 19
    endloop
  endfacet
  facet normal -0.980785 0.19509 0
    outer loop
      vertex -1.99 2.99 0
      vertex -1.99 2.99 19
      vertex -1.68552 4.52073 0
    endloop
  endfacet
  facet normal -0.980785 0.19509 0
    outer loop
      vertex -1.68552 4.52073 0
      vertex -1.99 2.99 19
      vertex -1.68552 4.52073 19
    endloop
  endfacet
  facet normal 0 0 -1
    outer loop
      vertex 0 0 0
      vertex 0 5 0
      vertex 1 0 0
    endloop
  endfacet
  facet normal 0 0 -1
    outer loop
      vertex 1 0 0
      vertex 0 5 0
      vertex 1 5 0
    endloop
  endfacet
  facet normal 1 0 0
    outer loop
      vertex 1 5 0
      vertex 1 5.5 0
      vertex 1 5.5 16
    endloop
  endfacet
  facet normal 1 0 0
    outer loop
      vertex 1 0 0
      vertex 1 5 0
      vertex 1 5.5 16
    endloop
  endfacet
  facet normal 1 0 0
    outer loop
      vertex 1 3.5 15.99
      vertex 1 0 0
      vertex 1 5.5 16
    endloop
  endfacet
  facet normal 1 0 0
    outer loop
      vertex 1 3.5 16
      vertex 1 3.5 15.99
      vertex 1 5.5 16
    endloop
  endfacet
  facet normal 1 0 0
    outer loop
      vertex 1 1.5 16
      vertex 1 0 0
      vertex 1 1.5 15.99
    endloop
  endfacet
  facet normal 1 0 0
    outer loop
      vertex 1 -0.5 16
      vertex 1 0 0
      vertex 1 1.5 16
    endloop
  endfacet
  facet normal 1 0 0
    outer loop
      vertex 1 -0.5 0
      vertex 1 0 0
      vertex 1 -0.5 16
    endloop
  endfacet
  facet normal 1 0 0
    outer loop
      vertex 1 3.5 15.99
      vertex 1 1.5 15.99
      vertex 1 0 0
    endloop
  endfacet
  facet normal 0 -1 0
    outer loop
      vertex 4.25 5.5 0
      vertex 4.25 5.5 16
      vertex 1 5.5 16
    endloop
  endfacet
  facet normal 0 -1 0
    outer loop
      vertex 1 5.5 0
      vertex 4.25 5.5 0
      vertex 1 5.5 16
    endloop
  endfacet
  facet normal -1 0 0
    outer loop
      vertex 4.25 3.5 15.99
      vertex 4.25 3.5 16
      vertex 4.25 4.75 15.99
    endloop
  endfacet
  facet normal -1 0 0
    outer loop
      vertex 4.25 5.5 16
      vertex 4.25 5.5 0
      vertex 4.25 4.75 15.99
    endloop
  endfacet
  facet normal -1 0 0
    outer loop
      vertex 4.25 5.5 16
      vertex 4.25 4.75 15.99
      vertex 4.25 3.5 16
    endloop
  endfacet
  facet normal -1 0 0
    outer loop
      vertex 4.25 4.75 15.99
      vertex 4.25 5.5 0
      vertex 4.25 5 0
    endloop
  endfacet
  facet normal -1 0 0
    outer loop
      vertex 4.25 4.75 15.99
      vertex 4.25 5 0
      vertex 4.25 4.75 0
    endloop
  endfacet
  facet normal 0 0 -1
    outer loop
      vertex 4.25 4.75 0
      vertex 4.25 5 0
      vertex 5.875 4.75 0
    endloop
  endfacet
  facet normal 0 0 -1
    outer loop
      vertex 5.875 4.75 0
      vertex 4.25 5 0
      vertex 5.875 5 0
    endloop
  endfacet
  facet normal 1 0 0
    outer loop
      vertex 5.875 4.75 15.99
      vertex 5.875 4.75 0
      vertex 5.875 5 0
    endloop
  endfacet
  facet normal 1 0 0
    outer loop
      vertex 5.875 5.5 16
      vertex 5.875 4.75 15.99
      vertex 5.875 5.5 0
    endloop
  endfacet
  facet normal 1 0 0
    outer loop
      vertex 5.875 5.5 0
      vertex 5.875 4.75 15.99
      vertex 5.875 5 0
    endloop
  endfacet
  facet normal 1 0 0
    outer loop
      vertex 5.875 3.5 16
      vertex 5.875 4.75 15.99
      vertex 5.875 5.5 16
    endloop
  endfacet
  facet normal 1 0 0
    outer loop
      vertex 5.875 3.5 15.99
      vertex 5.875 4.75 15.99
      vertex 5.875 3.5 16
    endloop
  endfacet
  facet normal 0 -1 0
    outer loop
      vertex 9.125 5.5 0
      vertex 9.125 5.5 16
      vertex 5.875 5.5 16
    endloop
  endfacet
  facet normal 0 -1 0
    outer loop
      vertex 5.875 5.5 0
      vertex 9.125 5.5 0
      vertex 5.875 5.5 16
    endloop
  endfacet
  facet normal -1 0 0
    outer loop
      vertex 9.125 3.5 15.99
      vertex 9.125 3.5 16
      vertex 9.125 4.75 15.99
    endloop
  endfacet
  facet normal -1 0 0
    outer loop
      vertex 9.125 5.5 16
      vertex 9.125 5.5 0
      vertex 9.125 4.75 15.99
    endloop
  endfacet
  facet normal -1 0 0
    outer loop
      vertex 9.125 5.5 16
      vertex 9.125 4.75 15.99
      vertex 9.125 3.5 16
    endloop
  endfacet
  facet normal -1 0 0
    outer loop
      vertex 9.125 4.75 15.99
      vertex 9.125 5.5 0
      vertex 9.125 5 0
    endloop
  endfacet
  facet normal -1 0 0
    outer loop
      vertex 9.125 4.75 15.99
      vertex 9.125 5 0
      vertex 9.125 4.75 0
    endloop
  endfacet
  facet normal 0 0 -1
    outer loop
      vertex 9.125 4.75 0
      vertex 9.125 5 0
      vertex 10.75 4.75 0
    endloop
  endfacet
  facet normal 0 0 -1
    outer loop
      vertex 10.75 4.75 0
      vertex 9.125 5 0
      vertex 10.75 5 0
    endloop
  endfacet
  facet normal 1 0 0
    outer loop
      vertex 10.75 4.75 15.99
      vertex 10.75 4.75 0
      vertex 10.75 5 0
    endloop
  endfacet
  facet normal 1 0 0
    outer loop
      vertex 10.75 5.5 16
      vertex 10.75 4.75 15.99
      vertex 10.75 5.5 0
    endloop
  endfacet
  facet normal 1 0 0
    outer loop
      vertex 10.75 5.5 0
      vertex 10.75 4.75 15.99
      vertex 10.75 5 0
    endloop
  endfacet
  facet normal 1 0 0
    outer loop
      vertex 10.75 3.5 16
      vertex 10.75 4.75 15.99
      vertex 10.75 5.5 16
    endloop
  endfacet
  facet normal 1 0 0
    outer loop
      vertex 10.75 3.5 15.99
      vertex 10.75 4.75 15.99
      vertex 10.75 3.5 16
    endloop
  endfacet
  facet normal 0 -1 0
    outer loop
      vertex 14 5.5 0
      vertex 14 5.5 16
      vertex 10.75 5.5 16
    endloop
  endfacet
  facet normal 0 -1 0
    outer loop
      vertex 10.75 5.5 0
      vertex 14 5.5 0
      vertex 10.75 5.5 16
    endloop
  endfacet
  facet normal -1 0 0
    outer loop
      vertex 14 1.5 16
      vertex 14 1.5 15.99
      vertex 14 -0.5 16
    endloop
  endfacet
  facet normal -1 0 0
    outer loop
      vertex 14 -0.5 16
      vertex 14 1.5 15.99
      vertex 14 5.5 0
    endloop
  endfacet
  facet normal -1 0 0
    outer loop
      vertex 14 5.5 16
      vertex 14 3.5 15.99
      vertex 14 3.5 16
    endloop
  endfacet
  facet normal -1 0 0
    outer loop
      vertex 14 5.5 0
      vertex 14 3.5 15.99
      vertex 14 5.5 16
    endloop
  endfacet
  facet normal -1 0 0
    outer loop
      vertex 14 1.5 15.99
      vertex 14 3.5 15.99
      vertex 14 5.5 0
    endloop
  endfacet
  facet normal -1 0 0
    outer loop
      vertex 14 -0.5 16
      vertex 14 5.5 0
      vertex 14 5 0
    endloop
  endfacet
  facet normal -1 0 0
    outer loop
      vertex 14 -0.5 16
      vertex 14 5 0
      vertex 14 0 0
    endloop
  endfacet
  facet normal -1 0 0
    outer loop
      vertex 14 -0.5 16
      vertex 14 0 0
      vertex 14 -0.5 0
    endloop
  endfacet
  facet normal 0 0 -1
    outer loop
      vertex 14 0 0
      vertex 14 5 0
      vertex 15 0 0
    endloop
  endfacet
  facet normal 0 0 -1
    outer loop
      vertex 15 0 0
      vertex 14 5 0
      vertex 15 5 0
    endloop
  endfacet
  facet normal 0 1 0
    outer loop
      vertex 14 -0.5 16
      vertex 14 -0.5 0
      vertex 10.75 -0.5 16
    endloop
  endfacet
  facet normal 0 1 0
    outer loop
      vertex 10.75 -0.5 16
      vertex 14 -0.5 0
      vertex 10.75 -0.5 0
    endloop
  endfacet
  facet normal 1 0 0
    outer loop
      vertex 10.75 0 0
      vertex 10.75 0.25 0
      vertex 10.75 0.25 15.99
    endloop
  endfacet
  facet normal 1 0 0
    outer loop
      vertex 10.75 -0.5 16
      vertex 10.75 0 0
      vertex 10.75 0.25 15.99
    endloop
  endfacet
  facet normal 1 0 0
    outer loop
      vertex 10.75 1.5 15.99
      vertex 10.75 1.5 16
      vertex 10.75 0.25 15.99
    endloop
  endfacet
  facet normal 1 0 0
    outer loop
      vertex 10.75 1.5 16
      vertex 10.75 -0.5 16
      vertex 10.75 0.25 15.99
    endloop
  endfacet
  facet normal 1 0 0
    outer loop
      vertex 10.75 -0.5 16
      vertex 10.75 -0.5 0
      vertex 10.75 0 0
    endloop
  endfacet
  facet normal 0 0 -1
    outer loop
      vertex 9.125 0 0
      vertex 9.125 0.25 0
      vertex 10.75 0 0
    endloop
  endfacet
  facet normal 0 0 -1
    outer loop
      vertex 10.75 0 0
      vertex 9.125 0.25 0
      vertex 10.75 0.25 0
    endloop
  endfacet
  facet normal -1 0 0
    outer loop
      vertex 9.125 1.5 16
      vertex 9.125 1.5 15.99
      vertex 9.125 -0.5 16
    endloop
  endfacet
  facet normal -1 0 0
    outer loop
      vertex 9.125 -0.5 16
      vertex 9.125 1.5 15.99
      vertex 9.125 0.25 15.99
    endloop
  endfacet
  facet normal -1 0 0
    outer loop
      vertex 9.125 -0.5 16
      vertex 9.125 0.25 15.99
      vertex 9.125 0.25 0
    endloop
  endfacet
  facet normal -1 0 0
    outer loop
      vertex 9.125 -0.5 16
      vertex 9.125 0.25 0
      vertex 9.125 0 0
    endloop
  endfacet
  facet normal -1 0 0
    outer loop
      vertex 9.125 -0.5 16
      vertex 9.125 0 0
      vertex 9.125 -0.5 0
    endloop
  endfacet
  facet normal 0 1 0
    outer loop
      vertex 9.125 -0.5 16
      vertex 9.125 -0.5 0
      vertex 5.875 -0.5 16
    endloop
  endfacet
  facet normal 0 1 0
    outer loop
      vertex 5.875 -0.5 16
      vertex 9.125 -0.5 0
      vertex 5.875 -0.5 0
    endloop
  endfacet
  facet normal 1 0 0
    outer loop
      vertex 5.875 0 0
      vertex 5.875 0.25 0
      vertex 5.875 0.25 15.99
    endloop
  endfacet
  facet normal 1 0 0
    outer loop
      vertex 5.875 -0.5 16
      vertex 5.875 0 0
      vertex 5.875 0.25 15.99
    endloop
  endfacet
  facet normal 1 0 0
    outer loop
      vertex 5.875 1.5 15.99
      vertex 5.875 1.5 16
      vertex 5.875 0.25 15.99
    endloop
  endfacet
  facet normal 1 0 0
    outer loop
      vertex 5.875 1.5 16
      vertex 5.875 -0.5 16
      vertex 5.875 0.25 15.99
    endloop
  endfacet
  facet normal 1 0 0
    outer loop
      vertex 5.875 -0.5 16
      vertex 5.875 -0.5 0
      vertex 5.875 0 0
    endloop
  endfacet
  facet normal 0 0 -1
    outer loop
      vertex 4.25 0 0
      vertex 4.25 0.25 0
      vertex 5.875 0 0
    endloop
  endfacet
  facet normal 0 0 -1
    outer loop
      vertex 5.875 0 0
      vertex 4.25 0.25 0
      vertex 5.875 0.25 0
    endloop
  endfacet
  facet normal -1 0 0
    outer loop
      vertex 4.25 1.5 16
      vertex 4.25 1.5 15.99
      vertex 4.25 -0.5 16
    endloop
  endfacet
  facet normal -1 0 0
    outer loop
      vertex 4.25 -0.5 16
      vertex 4.25 1.5 15.99
      vertex 4.25 0.25 15.99
    endloop
  endfacet
  facet normal -1 0 0
    outer loop
      vertex 4.25 -0.5 16
      vertex 4.25 0.25 15.99
      vertex 4.25 0.25 0
    endloop
  endfacet
  facet normal -1 0 0
    outer loop
      vertex 4.25 -0.5 16
      vertex 4.25 0.25 0
      vertex 4.25 0 0
    endloop
  endfacet
  facet normal -1 0 0
    outer loop
      vertex 4.25 -0.5 16
      vertex 4.25 0 0
      vertex 4.25 -0.5 0
    endloop
  endfacet
  facet normal 0 1 0
    outer loop
      vertex 4.25 -0.5 16
      vertex 4.25 -0.5 0
      vertex 1 -0.5 16
    endloop
  endfacet
  facet normal 0 1 0
    outer loop
      vertex 1 -0.5 16
      vertex 4.25 -0.5 0
      vertex 1 -0.5 0
    endloop
  endfacet
  facet normal 0 0 -1
    outer loop
      vertex 4.25 1.5 16
      vertex 4.25 -0.5 16
      vertex 1 1.5 16
    endloop
  endfacet
  facet normal 0 0 -1
    outer loop
      vertex 1 1.5 16
      vertex 4.25 -0.5 16
      vertex 1 -0.5 16
    endloop
  endfacet
  facet normal 0 -1 0
    outer loop
      vertex 4.25 1.5 15.99
      vertex 4.25 1.5 16
      vertex 1 1.5 16
    endloop
  endfacet
  facet normal 0 -1 0
    outer loop
      vertex 1 1.5 15.99
      vertex 4.25 1.5 15.99
      vertex 1 1.5 16
    endloop
  endfacet
  facet normal 0 0 -1
    outer loop
      vertex 4.25 3.5 15.99
      vertex 4.25 4.75 15.99
      vertex 5.875 4.75 15.99
    endloop
  endfacet
  facet normal 0 0 -1
    outer loop
      vertex 4.25 3.5 15.99
      vertex 5.875 4.75 15.99
      vertex 5.875 3.5 15.99
    endloop
  endfacet
  facet normal 0 0 -1
    outer loop
      vertex 4.25 3.5 15.99
      vertex 14 1.5 15.99
      vertex 1 3.5 15.99
    endloop
  endfacet
  facet normal 0 0 -1
    outer loop
      vertex 5.875 3.5 15.99
      vertex 14 1.5 15.99
      vertex 4.25 3.5 15.99
    endloop
  endfacet
  facet normal 0 0 -1
    outer loop
      vertex 9.125 3.5 15.99
      vertex 9.125 4.75 15.99
      vertex 10.75 4.75 15.99
    endloop
  endfacet
  facet normal 0 0 -1
    outer loop
      vertex 9.125 3.5 15.99
      vertex 10.75 4.75 15.99
      vertex 10.75 3.5 15.99
    endloop
  endfacet
  facet normal 0 0 -1
    outer loop
      vertex 9.125 3.5 15.99
      vertex 14 1.5 15.99
      vertex 5.875 3.5 15.99
    endloop
  endfacet
  facet normal 0 0 -1
    outer loop
      vertex 10.75 3.5 15.99
      vertex 14 3.5 15.99
      vertex 14 1.5 15.99
    endloop
  endfacet
  facet normal 0 0 -1
    outer loop
      vertex 10.75 3.5 15.99
      vertex 14 1.5 15.99
      vertex 9.125 3.5 15.99
    endloop
  endfacet
  facet normal 0 0 -1
    outer loop
      vertex 14 1.5 15.99
      vertex 10.75 1.5 15.99
      vertex 1 3.5 15.99
    endloop
  endfacet
  facet normal 0 0 -1
    outer loop
      vertex 5.875 1.5 15.99
      vertex 1 3.5 15.99
      vertex 9.125 1.5 15.99
    endloop
  endfacet
  facet normal 0 0 -1
    outer loop
      vertex 10.75 1.5 15.99
      vertex 10.75 0.25 15.99
      vertex 9.125 1.5 15.99
    endloop
  endfacet
  facet normal 0 0 -1
    outer loop
      vertex 10.75 1.5 15.99
      vertex 9.125 1.5 15.99
      vertex 1 3.5 15.99
    endloop
  endfacet
  facet normal 0 0 -1
    outer loop
      vertex 4.25 1.5 15.99
      vertex 5.875 0.25 15.99
      vertex 4.25 0.25 15.99
    endloop
  endfacet
  facet normal 0 0 -1
    outer loop
      vertex 1 1.5 15.99
      vertex 1 3.5 15.99
      vertex 4.25 1.5 15.99
    endloop
  endfacet
  facet normal 0 0 -1
    outer loop
      vertex 5.875 1.5 15.99
      vertex 5.875 0.25 15.99
      vertex 4.25 1.5 15.99
    endloop
  endfacet
  facet normal 0 0 -1
    outer loop
      vertex 5.875 1.5 15.99
      vertex 4.25 1.5 15.99
      vertex 1 3.5 15.99
    endloop
  endfacet
  facet normal 0 0 -1
    outer loop
      vertex 9.125 1.5 15.99
      vertex 10.75 0.25 15.99
      vertex 9.125 0.25 15.99
    endloop
  endfacet
  facet normal 0 1 0
    outer loop
      vertex 4.25 3.5 16
      vertex 4.25 3.5 15.99
      vertex 1 3.5 16
    endloop
  endfacet
  facet normal 0 1 0
    outer loop
      vertex 1 3.5 16
      vertex 4.25 3.5 15.99
      vertex 1 3.5 15.99
    endloop
  endfacet
  facet normal 0 0 -1
    outer loop
      vertex 4.25 5.5 16
      vertex 4.25 3.5 16
      vertex 1 5.5 16
    endloop
  endfacet
  facet normal 0 0 -1
    outer loop
      vertex 1 5.5 16
      vertex 4.25 3.5 16
      vertex 1 3.5 16
    endloop
  endfacet
  facet normal 0 -1 0
    outer loop
      vertex 5.875 4.75 0
      vertex 5.875 4.75 15.99
      vertex 4.25 4.75 15.99
    endloop
  endfacet
  facet normal 0 -1 0
    outer loop
      vertex 4.25 4.75 0
      vertex 5.875 4.75 0
      vertex 4.25 4.75 15.99
    endloop
  endfacet
  facet normal 0 1 0
    outer loop
      vertex 9.125 3.5 16
      vertex 9.125 3.5 15.99
      vertex 5.875 3.5 16
    endloop
  endfacet
  facet normal 0 1 0
    outer loop
      vertex 5.875 3.5 16
      vertex 9.125 3.5 15.99
      vertex 5.875 3.5 15.99
    endloop
  endfacet
  facet normal 0 0 -1
    outer loop
      vertex 9.125 5.5 16
      vertex 9.125 3.5 16
      vertex 5.875 5.5 16
    endloop
  endfacet
  facet normal 0 0 -1
    outer loop
      vertex 5.875 5.5 16
      vertex 9.125 3.5 16
      vertex 5.875 3.5 16
    endloop
  endfacet
  facet normal 0 -1 0
    outer loop
      vertex 10.75 4.75 0
      vertex 10.75 4.75 15.99
      vertex 9.125 4.75 15.99
    endloop
  endfacet
  facet normal 0 -1 0
    outer loop
      vertex 9.125 4.75 0
      vertex 10.75 4.75 0
      vertex 9.125 4.75 15.99
    endloop
  endfacet
  facet normal 0 1 0
    outer loop
      vertex 14 3.5 16
      vertex 14 3.5 15.99
      vertex 10.75 3.5 16
    endloop
  endfacet
  facet normal 0 1 0
    outer loop
      vertex 10.75 3.5 16
      vertex 14 3.5 15.99
      vertex 10.75 3.5 15.99
    endloop
  endfacet
  facet normal 0 0 -1
    outer loop
      vertex 14 5.5 16
      vertex 14 3.5 16
      vertex 10.75 5.5 16
    endloop
  endfacet
  facet normal 0 0 -1
    outer loop
      vertex 10.75 5.5 16
      vertex 14 3.5 16
      vertex 10.75 3.5 16
    endloop
  endfacet
  facet normal 0 0 -1
    outer loop
      vertex 14 1.5 16
      vertex 14 -0.5 16
      vertex 10.75 1.5 16
    endloop
  endfacet
  facet normal 0 0 -1
    outer loop
      vertex 10.75 1.5 16
      vertex 14 -0.5 16
      vertex 10.75 -0.5 16
    endloop
  endfacet
  facet normal 0 -1 0
    outer loop
      vertex 14 1.5 15.99
      vertex 14 1.5 16
      vertex 10.75 1.5 16
    endloop
  endfacet
  facet normal 0 -1 0
    outer loop
      vertex 10.75 1.5 15.99
      vertex 14 1.5 15.99
      vertex 10.75 1.5 16
    endloop
  endfacet
  facet normal 0 1 0
    outer loop
      vertex 10.75 0.25 15.99
      vertex 10.75 0.25 0
      vertex 9.125 0.25 15.99
    endloop
  endfacet
  facet normal 0 1 0
    outer loop
      vertex 9.125 0.25 15.99
      vertex 10.75 0.25 0
      vertex 9.125 0.25 0
    endloop
  endfacet
  facet normal 0 0 -1
    outer loop
      vertex 9.125 1.5 16
      vertex 9.125 -0.5 16
      vertex 5.875 1.5 16
    endloop
  endfacet
  facet normal 0 0 -1
    outer loop
      vertex 5.875 1.5 16
      vertex 9.125 -0.5 16
      vertex 5.875 -0.5 16
    endloop
  endfacet
  facet normal 0 -1 0
    outer loop
      vertex 9.125 1.5 15.99
      vertex 9.125 1.5 16
      vertex 5.875 1.5 16
    endloop
  endfacet
  facet normal 0 -1 0
    outer loop
      vertex 5.875 1.5 15.99
      vertex 9.125 1.5 15.99
      vertex 5.875 1.5 16
    endloop
  endfacet
  facet normal 0 1 0
    outer loop
      vertex 5.875 0.25 15.99
      vertex 5.875 0.25 0
      vertex 4.25 0.25 15.99
    endloop
  endfacet
  facet normal 0 1 0
    outer loop
      vertex 4.25 0.25 15.99
      vertex 5.875 0.25 0
      vertex 4.25 0.25 0
    endloop
  endfacet
endsolid OpenSCAD_Model
